# xmcd
#
# Track frame offsets: 
#        151
#        11466
#        24640
#        37281
#        47302
#        58925
#        70676
#        84497
#        100236
#        111762
#        126097
#        136634
#        150604
#        163327
#        175340
#        189684
#        199654
#        212295
#        224502
#        236288
#        251981
#        263328
#        276093
#        290173
#        301043
#
# Disc length: 4156 seconds
#
# Revision: 0
# Processed by: cddbd v1.4PL0 Copyright (c) Steve Scherf et al.
# Submitted via: ExactAudioCopy v0.90b4
#
DISCID=63103a19
DTITLE=Various Artist - The Sun Blues Years
DYEAR=1900
DGENRE=Blues
TTITLE0=If You Love Me Baby - Little Milton
TTITLE1=Gee I Wish - Billy Love
TTITLE2=Move Bany Move - Billy The Kid Emerson
TTITLE3=So Long Baby Goodbye - Sammy Lewis
TTITLE4=Hydamatic Woman - Joe Hill Louis
TTITLE5=Carry My Business On - Houston Boines
TTITLE6=Feelin' Good -  Little Junior's Blue Flames
TTITLE7=Got My Call Card - LB Lawson and James Scott Jr.
TTITLE8=Let's Take A Little Walk - Willie Nix
TTITLE9=Train Time - Woodrow Adams
TTITLE10=Move On Down The Line - Earl Hooker
TTITLE11=I Wade Through Muddy Water - Rosco Gordon
TTITLE12=Married Woman - Rufus Thomas
TTITLE13=Ugly Woman - Johnny O'Neal
TTITLE14=West Winds Are Blowing - Walter Horton
TTITLE15=Baby's Gone And Left Me - Houston Stokes
TTITLE16=Pinetop's Boogie Woogie - Pinetop Perkins
TTITLE17=Baby I'm Coming Home
TTITLE18=Mistreating Boogie - Mose Vinson
TTITLE19=Baby Child - Elven Parr's In The Groove Boys
TTITLE20=Ain't Gonna Tell You No Lies - James Banister
TTITLE21=Hi Tone Mama - Walter Tang Smith
TTITLE22=Runnin' Around - Sleepy Jhon Estes
TTITLE23=Love You Love You Baby - Dennis Binder
TTITLE24=My Baby - James Cotton
EXTD=
EXTT0=
EXTT1=
EXTT2=
EXTT3=
EXTT4=
EXTT5=
EXTT6=
EXTT7=
EXTT8=
EXTT9=
EXTT10=
EXTT11=
EXTT12=
EXTT13=
EXTT14=
EXTT15=
EXTT16=
EXTT17=
EXTT18=
EXTT19=
EXTT20=
EXTT21=
EXTT22=
EXTT23=
EXTT24=
PLAYORDER=
